<svg width="32" height="32" viewBox="0 0 32 32" fill="none" xmlns="http://www.w3.org/2000/svg">
<g filter="url(#filter0_i_53_76)">
<path d="M0 16C0 7.16344 7.16344 0 16 0C24.8366 0 32 7.16344 32 16C32 24.8366 24.8366 32 16 32C7.16344 32 0 24.8366 0 16Z" fill="#F6F6F6"/>
<path d="M15.9974 24.3337C20.5998 24.3337 24.3307 20.6027 24.3307 16.0003C24.3307 11.398 20.5998 7.66699 15.9974 7.66699C11.395 7.66699 7.66406 11.398 7.66406 16.0003C7.66406 20.6027 11.395 24.3337 15.9974 24.3337Z" stroke="#454648" stroke-linecap="round" stroke-linejoin="round"/>
<path d="M13.2309 15.9245L14.6059 16.2662L13.8142 19.4662C13.6309 20.2162 13.9975 20.4662 14.6309 20.0245L18.9475 17.0329C19.4725 16.6662 19.3975 16.2412 18.7725 16.0829L17.3975 15.7412L18.1892 12.5412C18.3725 11.7912 18.0059 11.5412 17.3725 11.9829L13.0559 14.9746C12.5309 15.3412 12.6059 15.7662 13.2309 15.9245Z" stroke="#454648" stroke-miterlimit="10" stroke-linecap="round" stroke-linejoin="round"/>
</g>
<defs>
<filter id="filter0_i_53_76" x="0" y="0" width="32" height="32" filterUnits="userSpaceOnUse" color-interpolation-filters="sRGB">
<feFlood flood-opacity="0" result="BackgroundImageFix"/>
<feBlend mode="normal" in="SourceGraphic" in2="BackgroundImageFix" result="shape"/>
<feColorMatrix in="SourceAlpha" type="matrix" values="0 0 0 0 0 0 0 0 0 0 0 0 0 0 0 0 0 0 127 0" result="hardAlpha"/>
<feOffset/>
<feGaussianBlur stdDeviation="1"/>
<feComposite in2="hardAlpha" operator="arithmetic" k2="-1" k3="1"/>
<feColorMatrix type="matrix" values="0 0 0 0 0.727633 0 0 0 0 0.727633 0 0 0 0 0.727633 0 0 0 0.25 0"/>
<feBlend mode="normal" in2="shape" result="effect1_innerShadow_53_76"/>
</filter>
</defs>
</svg>
