<svg width="40" height="40" viewBox="0 0 40 40" fill="none" xmlns="http://www.w3.org/2000/svg">
<g filter="url(#filter0_di_53_52)">
<path d="M4 18C4 9.16344 11.1634 2 20 2C28.8366 2 36 9.16344 36 18C36 26.8366 28.8366 34 20 34C11.1634 34 4 26.8366 4 18Z" fill="url(#paint0_linear_53_52)"/>
<path d="M17.0846 23.8332H16.668C13.3346 23.8332 11.668 22.9998 11.668 18.8332V14.6665C11.668 11.3332 13.3346 9.6665 16.668 9.6665H23.3346C26.668 9.6665 28.3346 11.3332 28.3346 14.6665V18.8332C28.3346 22.1665 26.668 23.8332 23.3346 23.8332H22.918C22.6596 23.8332 22.4096 23.9582 22.2513 24.1665L21.0013 25.8332C20.4513 26.5665 19.5513 26.5665 19.0013 25.8332L17.7513 24.1665C17.618 23.9832 17.3096 23.8332 17.0846 23.8332Z" stroke="#050505" stroke-miterlimit="10" stroke-linecap="round" stroke-linejoin="round"/>
<path d="M15.832 14.6665H24.1654" stroke="#050505" stroke-linecap="round" stroke-linejoin="round"/>
<path d="M15.832 18.8335H20.832" stroke="#050505" stroke-linecap="round" stroke-linejoin="round"/>
</g>
<defs>
<filter id="filter0_di_53_52" x="0" y="0" width="40" height="40" filterUnits="userSpaceOnUse" color-interpolation-filters="sRGB">
<feFlood flood-opacity="0" result="BackgroundImageFix"/>
<feColorMatrix in="SourceAlpha" type="matrix" values="0 0 0 0 0 0 0 0 0 0 0 0 0 0 0 0 0 0 127 0" result="hardAlpha"/>
<feOffset dy="2"/>
<feGaussianBlur stdDeviation="2"/>
<feComposite in2="hardAlpha" operator="out"/>
<feColorMatrix type="matrix" values="0 0 0 0 0.869686 0 0 0 0 0.851555 0 0 0 0 0.900729 0 0 0 1 0"/>
<feBlend mode="normal" in2="BackgroundImageFix" result="effect1_dropShadow_53_52"/>
<feBlend mode="normal" in="SourceGraphic" in2="effect1_dropShadow_53_52" result="shape"/>
<feColorMatrix in="SourceAlpha" type="matrix" values="0 0 0 0 0 0 0 0 0 0 0 0 0 0 0 0 0 0 127 0" result="hardAlpha"/>
<feOffset/>
<feGaussianBlur stdDeviation="2"/>
<feComposite in2="hardAlpha" operator="arithmetic" k2="-1" k3="1"/>
<feColorMatrix type="matrix" values="0 0 0 0 0.895396 0 0 0 0 0.834473 0 0 0 0 1 0 0 0 1 0"/>
<feBlend mode="normal" in2="shape" result="effect2_innerShadow_53_52"/>
</filter>
<linearGradient id="paint0_linear_53_52" x1="20" y1="2" x2="20.5" y2="69" gradientUnits="userSpaceOnUse">
<stop stop-color="#EFE6FF"/>
<stop offset="1" stop-color="#C3A9F1"/>
</linearGradient>
</defs>
</svg>
