<svg width="16" height="16" viewBox="0 0 16 16" fill="none" xmlns="http://www.w3.org/2000/svg">
<path d="M8.59332 3.92H3.40664C2.26664 3.92 1.33331 4.85333 1.33331 5.99333V13.5667C1.33331 14.5333 2.02664 14.9467 2.87331 14.4733L5.49331 13.0133C5.77331 12.86 6.22665 12.86 6.49998 13.0133L9.11997 14.4733C9.96664 14.9467 10.66 14.5333 10.66 13.5667V5.99333C10.6666 4.85333 9.73332 3.92 8.59332 3.92Z" stroke="#454648" stroke-linecap="round" stroke-linejoin="round"/>
<path d="M10.6666 5.99333V13.5667C10.6666 14.5333 9.97331 14.94 9.12665 14.4733L6.50665 13.0133C6.22665 12.86 5.77331 12.86 5.49331 13.0133L2.87331 14.4733C2.02664 14.94 1.33331 14.5333 1.33331 13.5667V5.99333C1.33331 4.85333 2.26664 3.92 3.40664 3.92H8.59332C9.73332 3.92 10.6666 4.85333 10.6666 5.99333Z" stroke="#454648" stroke-linecap="round" stroke-linejoin="round"/>
<path d="M14.6666 3.40666V10.98C14.6666 11.9467 13.9733 12.3533 13.1266 11.8867L10.6666 10.5133V5.99333C10.6666 4.85333 9.73332 3.92 8.59332 3.92H5.33331V3.40666C5.33331 2.26666 6.26664 1.33333 7.40664 1.33333H12.5933C13.7333 1.33333 14.6666 2.26666 14.6666 3.40666Z" stroke="#454648" stroke-linecap="round" stroke-linejoin="round"/>
</svg>
