<svg width="18" height="18" viewBox="0 0 18 18" fill="none" xmlns="http://www.w3.org/2000/svg">
<path d="M14.2952 14.0028L12.6902 10.8003L11.0852 14.0028" stroke="#454648" stroke-linecap="round" stroke-linejoin="round"/>
<path d="M11.3774 13.4326H14.0174" stroke="#454648" stroke-linecap="round" stroke-linejoin="round"/>
<path d="M12.6899 16.4999C10.5899 16.4999 8.87988 14.7973 8.87988 12.6898C8.87988 10.5898 10.5824 8.87988 12.6899 8.87988C14.7899 8.87988 16.4999 10.5823 16.4999 12.6898C16.4999 14.7973 14.7974 16.4999 12.6899 16.4999Z" stroke="#454648" stroke-linecap="round" stroke-linejoin="round"/>
<path d="M3.765 1.5H6.705C8.2575 1.5 9.00751 2.25001 8.97001 3.76501V6.705C9.00751 8.2575 8.2575 9.00752 6.705 8.97002H3.765C2.25 9.00002 1.5 8.24999 1.5 6.69749V3.75751C1.5 2.25001 2.25 1.5 3.765 1.5Z" stroke="#454648" stroke-linecap="round" stroke-linejoin="round"/>
<path d="M6.75789 4.3877H3.71289" stroke="#454648" stroke-linecap="round" stroke-linejoin="round"/>
<path d="M5.22827 3.87793V4.38792" stroke="#454648" stroke-linecap="round" stroke-linejoin="round"/>
<path d="M5.99307 4.38037C5.99307 5.69287 4.96557 6.75786 3.70557 6.75786" stroke="#454648" stroke-linecap="round" stroke-linejoin="round"/>
<path d="M6.75785 6.758C6.21035 6.758 5.71536 6.46549 5.37036 6.00049" stroke="#454648" stroke-linecap="round" stroke-linejoin="round"/>
<path d="M1.5 11.25C1.5 14.1525 3.8475 16.5 6.75 16.5L5.9625 15.1875" stroke="#454648" stroke-linecap="round" stroke-linejoin="round"/>
<path d="M16.5 6.75C16.5 3.8475 14.1525 1.5 11.25 1.5L12.0375 2.8125" stroke="#454648" stroke-linecap="round" stroke-linejoin="round"/>
</svg>
